# xmcd CD database file
#
# Track frame offsets:
#	150
#	19652
#	35792
#	57078
#	73548
#	100409
#	119675
#	140959
#	158622
#	175413
#	193568
#	214915
#
# Disc length: 3136 seconds
#
# Revision: 1
# Processed by: cddbd v1.5.2PL0 Copyright (c) Steve Scherf et al.
# Submitted via: CDex 1.51
#
DISCID=b50c3e0c
DTITLE=8-BALL - SOUND OF DRIFT ~D1 GRAND PRIX OFFICIAL  SOUND COLLECTION2~
DYEAR=2005
DGENRE=Rock
TTITLE0=MASQUERADE
TTITLE1=MEMORY
TTITLE2=(Need for)SPEED 2
TTITLE3=HELLO VENUS!
TTITLE4=ANGEL
TTITLE5=BROKEN
TTITLE6=TAKE 7
TTITLE7=ADDICTED
TTITLE8=WORLD DESTRUCTION
TTITLE9=ALL FOR YOU
TTITLE10=CAN'T CARRY ON(Album Version)
TTITLE11=(Need for)SPEED
EXTD=YEAR: 2005
EXTT0=
EXTT1=
EXTT2=
EXTT3=
EXTT4=
EXTT5=
EXTT6=
EXTT7=
EXTT8=
EXTT9=
EXTT10=
EXTT11=
PLAYORDER=
